<!DOCTYPE svg PUBLIC "-//W3C//DTD SVG 20010904//EN" "http://www.w3.org/TR/2001/REC-SVG-20010904/DTD/svg10.dtd">
<svg version="1.0" xmlns="http://www.w3.org/2000/svg" width="174px" height="132px" viewBox="0 0 1740 1320" preserveAspectRatio="xMidYMid meet">
<g id="layer101" fill="#787878" stroke="none">
 <path d="M0 660 l0 -660 870 0 870 0 0 660 0 660 -870 0 -870 0 0 -660z"/>
 </g>
<g id="layer102" fill="#f7f7f7" stroke="none">
 <path d="M0 660 l0 -660 870 0 870 0 0 660 0 660 -870 0 -870 0 0 -660z m925 480 c243 -39 416 -280 376 -522 -45 -272 -319 -443 -583 -363 -203 61 -345 267 -324 471 17 168 114 307 261 376 95 44 170 54 270 38z"/>
 <path d="M745 1057 c-107 -36 -197 -114 -241 -210 -26 -55 -29 -73 -29 -157 0 -83 4 -103 29 -157 35 -77 113 -154 193 -190 49 -23 72 -27 153 -27 87 -1 100 2 161 31 79 39 150 111 187 191 23 49 27 70 27 152 0 82 -4 103 -27 152 -37 79 -108 152 -185 190 -54 26 -79 32 -146 35 -50 2 -98 -2 -122 -10z m-59 -125 c6 -4 18 -21 27 -38 9 -18 31 -44 49 -59 29 -25 38 -27 96 -23 68 4 75 9 147 103 14 18 25 24 37 20 66 -26 -20 -163 -121 -194 -90 -26 -166 -7 -231 58 -56 56 -73 107 -44 128 20 15 25 16 40 5z m64 -342 c56 -56 -13 -156 -82 -119 -51 27 -61 70 -27 113 26 33 79 36 109 6z m309 -6 c38 -48 17 -105 -45 -120 -63 -16 -112 78 -65 125 31 31 84 28 110 -5z"/>
 </g>

</svg>